<?xml version="1.0" encoding="utf-8"?>
<!-- Generator: Adobe Illustrator 24.2.3, SVG Export Plug-In . SVG Version: 6.00 Build 0)  -->
<svg version="1.1" id="Capa_1" xmlns="http://www.w3.org/2000/svg" xmlns:xlink="http://www.w3.org/1999/xlink" x="0px" y="0px"
	 viewBox="0 0 1000 350" style="enable-background:new 0 0 1000 350;" xml:space="preserve">
<style type="text/css">
	.st0{fill:none;stroke:#575756;stroke-width:0.5;stroke-miterlimit:10;}
	.st1{fill:none;stroke:#000000;stroke-width:0.5;stroke-miterlimit:10;}
	.st2{fill:#3C3C3B;}
	.st3{font-family:'BarlowSemiCondensed-Light';}
	.st4{font-size:21.6px;}
	.st5{fill:none;}
	.st6{fill:none;stroke:#C6C6C5;stroke-width:0.25;stroke-miterlimit:10;stroke-dasharray:1,1;}
	.st7{fill:#1D1D1B;}
	.st8{font-size:27px;}
	.st9{fill:#DC7324;}
	.st10{font-family:'BarlowSemiCondensed-SemiBold';}
	.st11{fill:#DAD2CA;}
	.st12{fill:none;stroke:#000000;stroke-width:0.25;stroke-miterlimit:10;stroke-dasharray:1,1;}
	.st13{fill:#FFFFFF;}
	.st14{fill:#DBD3CA;}
</style>
<g>
	<g>
		<line class="st0" x1="291.8" y1="301.9" x2="860.6" y2="301.9"/>
		<g>
			<g>
				<line class="st1" x1="147" y1="301.9" x2="147" y2="294.7"/>
				<line class="st1" x1="860.6" y1="301.9" x2="860.6" y2="294.7"/>
			</g>
			<g>
			</g>
		</g>
	</g>
	<g>
		<g>
			<text transform="matrix(1.0884 0 0 1 113.2505 239.4229)" class="st2 st3 st4">50 cm</text>
			<text transform="matrix(1.0884 0 0 1 113.2505 167.7568)" class="st2 st3 st4">100 cm</text>
			<text transform="matrix(1.0884 0 0 1 113.2505 96.0869)" class="st2 st3 st4">150 cm</text>
			<text transform="matrix(1.0884 0 0 1 113.2505 24.4209)" class="st2 st3 st4">200 cm</text>
		</g>
		<line class="st5" x1="147" y1="301.9" x2="147" y2="15.2"/>
		<g>
			<g>
				<line class="st1" x1="145.4" y1="301.9" x2="860.6" y2="301.9"/>
				<line class="st6" x1="187.8" y1="230.2" x2="860.6" y2="230.2"/>
				<line class="st6" x1="187.8" y1="158.6" x2="860.6" y2="158.6"/>
				<line class="st6" x1="187.8" y1="86.9" x2="860.6" y2="86.9"/>
				<line class="st6" x1="187.8" y1="15.2" x2="860.6" y2="15.2"/>
			</g>
			<g>
			</g>
		</g>
	</g>
	<g>
		<g>
			<g>
				<rect x="550.8" y="58.2" class="st5" width="102.4" height="243.7"/>
			</g>
		</g>
		<g>
			<g>
				<rect x="437.1" y="144.2" class="st5" width="102.4" height="157.7"/>
			</g>
		</g>
		<g>
			<g>
				<rect x="323.3" y="194.4" class="st5" width="102.4" height="107.5"/>
			</g>
		</g>
		<g>
			<g>
				<rect x="209.6" y="266.1" class="st5" width="102.4" height="35.8"/>
			</g>
		</g>
	</g>
	<g>
		<g>
		</g>
		<g>
		</g>
		<g>
		</g>
		<g>
		</g>
	</g>
</g>
<text transform="matrix(1 0 0 1 794.7505 344.999)" class="st7 st3 st8">Gato</text>
<text transform="matrix(1 0 0 1 622.1655 344.999)" class="st7 st3 st8">Leopardo</text>
<g>
	<text transform="matrix(1 0 0 1 400.2031 345)" class="st9 st10 st8">Tigre</text>
</g>
<text transform="matrix(1 0 0 1 175.3926 345)" class="st7 st3 st8">Humano</text>
<g>
	<g>
		<path id="XMLID_2_" class="st9" d="M608.6,178.7c-2.3-5.4-4.5-10.9-6.9-16.3c-1.7-3.9-3.6-7.8-5.7-11.5
			c-4.9-8.7-13.1-13.2-23.2-15.3c-2.3-0.5-4.3-2-6.3-3.3c-2.6-1.7-5-3.7-7.7-5.2c-4.4-2.4-6.7-2.1-9.6,1.8c-1.5,1.9-3,2.4-5.4,2.4
			c-9.1,0-17.5,3-25.8,6c-8,2.9-16,5.8-23.9,8.7c-11.7,4.3-23.8,4.9-36.2,3.5c-18.3-2-36.7-3.8-55-5.7c-15.1-1.5-30.3-1.9-45.4-0.5
			c-19.4,1.7-36.9,7.4-50.1,21.5c-9.3,10-14.3,22-17.7,34.6c-1.7,6.4-3,13-5,19.3c-1,3.1-2.7,6.1-4.6,8.7c-2.7,3.6-7,4.6-11.5,4.4
			c-1.1,0-2.4-0.8-3-1.6c-1.9-2.3-4.3-2.8-7-1.6c-2.5,1.1-3.3,3.8-2.2,6.6c1.2,3.2,3.9,4.8,7.3,5.6c11.9,2.9,23.9-2.4,28.7-13.7
			c3.1-7.4,4.9-15.3,6.9-23c2.9-10.8,6.5-21.3,13.9-30.3c0.5-0.7,1.1-1.3,1.7-2c0.2-0.2,0.5-0.3,0.6-0.4
			c1.4,23.2-0.2,45.9-15.7,65.4c-4.8,6.1-5.1,11.8-4.2,18.6c1.6,12.1,2.6,24.3,3.8,36.5c1,10.3,0.7,11.2,12.5,10.9
			c6.4-0.1,12.9,0,19.3,0c5.8,0,7.9-2.7,6.2-7.8c-1-2.8-1.7-5.8-3.3-8.3c-1.6-2.5-4-4.8-6.5-6.7c-1.6-1.2-2.2-1.9-1.7-3.8
			c3-12.2,10.9-20.8,23.6-27.2c1.1,8.4,2.7,16.4,2.9,24.5c0.2,6.4,1.5,11.9,6.2,16.8c2.7,2.8,4.9,6.1,7.3,9.2
			c1.6,2.2,3.8,3.2,6.7,3.2c8-0.1,16.1,0,24.1,0c5.4,0,7.7-3.6,5.1-7.9c-2-3.2-4.1-6.3-6.2-9.5c-2.9-4.3-7.1-6.7-12.6-7.5
			c2.6-18.2,5.3-36.2,7.9-54.5c21.6,7.5,43.9,11.3,67,13.5c-1.2,7.3-2.3,14.2-3.5,21.2c-1,5.9-2.1,11.8-2.9,17.8
			c-0.2,1.5,0.1,3.2,0.7,4.6c2.6,6.1,5.5,12,8.2,18.1c1.4,3,3.6,4.3,7.2,4.2c7.3-0.1,14.7,0,22.1-0.1c6,0,8.3-3.5,5.4-8.4
			c-2.5-4.2-4.5-9.2-8.3-12.2c-3.9-3.1-3.3-5.2-1.9-8.7c3.7-8.9,7-18,10.8-27.6c0.9,1.6,1.6,2.7,2.1,3.7c7.8,14.2,16.3,28.1,28,40.1
			c4,4.1,8.7,7.8,13.3,11.4c1.2,0.9,3.1,1.5,4.7,1.5c6.8,0.2,13.6,0.1,20.3,0.1c5.4-0.1,7.8-3.3,5.6-7.8c-1.4-2.9-3-5.7-4.6-8.5
			c-2.3-4.1-5.9-6.9-10.8-8.2c-1.1-0.3-2.4-1.3-2.8-2.2c-9.1-21.1-13.8-42.8-10.4-65.5c1-6.3,3-12.5,4.5-18.4
			c5.5-0.3,10.3-0.8,15.1-0.7c6.1,0.1,11.1,2.9,15.5,6.7c5.9,5,10,5.6,16,0.8c6.2-4.9,11.4-10.9,17-16.4
			C608.6,181.3,608.6,180,608.6,178.7z"/>
	</g>
	<g>
		<path class="st11" d="M559.6,255.5c2.8-2.4,3.7-2.4,6.6,0.2c0.4,0.4,1.2,0.6,1.8,0.6c3.1,0,5.9-0.7,7.7-3.2
			c1.2-1.7,2.2-3.6,2.8-5.6c1.3-4.1,2.1-8.3,3.2-12.5c2.2-8.3,5.4-16.1,11.5-22.7c8.6-9.3,20.1-13,32.9-14.2
			c10.2-0.9,20.3-0.6,30.5,0.4c11.7,1.2,23.4,2.3,35,3.6c6.8,0.7,13.6,1.1,20.1-1c6.7-2.2,13.2-4.6,19.8-6.9c5.6-2,11.1-4,17.2-4
			c1.5,0,2.4-0.3,3.4-1.5c2-2.6,3.5-2.8,6.5-1.2c1.5,0.8,3.1,1.6,4.2,2.8c1.8,2,4,2.7,6.6,3.2c6.6,1.4,11.4,5,14.2,10.6
			c2.7,5.6,5.1,11.4,7.3,17.1c0.4,1,0.2,2.8-0.5,3.6c-3.1,3.3-6.3,6.7-10,9.5c-4.2,3.3-6.8,2.9-10.9-0.5c-2.9-2.4-6.2-4.2-10.3-4.2
			c-3.1,0-6.1,0.3-9.7,0.5c-1,3.9-2.3,7.9-3,12.1c-2.3,14.9,0.9,29.2,6.8,43c0.3,0.6,1.1,1.3,1.8,1.5c3.2,0.9,5.6,2.7,7.1,5.4
			c1,1.8,2.1,3.7,3,5.6c1.4,2.9-0.1,5-3.4,5.1c-4.6,0.1-9.2,0.1-13.8,0c-1,0-2.1-0.4-2.9-1c-3-2.4-6.1-4.8-8.7-7.5
			c-7.7-7.8-13.2-17-18.4-26.3c-0.4-0.7-0.8-1.4-1.4-2.4c-2.5,6.3-4.6,12.3-7.1,18.2c-0.9,2.3-1.3,3.7,1.2,5.7c2.5,2,3.8,5.2,5.5,8
			c1.9,3.2,0.4,5.5-3.5,5.5c-4.8,0-9.7-0.1-14.5,0c-2.4,0-3.8-0.8-4.7-2.8c-1.8-4-3.7-7.9-5.4-11.9c-0.4-0.9-0.6-2-0.5-3
			c0.6-4,1.3-7.9,2-11.9c0.7-4.5,1.5-9,2.2-13.7c-15.1-1.5-29.8-3.9-44-8.9c-1.7,12-3.5,23.8-5.2,35.8c3.9,0.5,6.7,2.4,8.7,5.5
			c1.2,1.9,2.4,3.7,3.6,5.5c1.8,2.9,0.4,5.3-3.3,5.3c-3.7,0-7.4,0-11.1,0c-8.5,0-6.6,0.7-11.8-5.4c-3.9-4.6-7.1-9.2-6.1-15.4
			c0.2-1.3-0.2-2.6-0.4-3.9c-0.6-3.4-1.2-6.8-1.8-10.4c-7,3.7-12.2,8.3-14.4,15.3c-0.4,1.3-1.1,2.6-0.9,3.8c0.1,0.8,1.7,1.3,2.6,2
			c3.7,2.9,4.7,7,5.4,11.1c0.3,1.7-1.3,3-3.5,3c-5.9,0.1-11.8,0.1-17.7,0c-2.1,0-3.4-1.1-3.6-3c-0.4-2.9-0.6-5.8-0.9-8.7
			c-0.8-8.1-1.8-16.1-2.4-24.2c-0.1-1.5,0.2-3.3,1.2-4.4c11.4-13.7,13.5-29.5,12.2-46.5c-1.8,2.7-3.6,4.9-5,7.4
			c-3.7,6.3-5.2,13.4-6.9,20.3c-1.3,5.4-2.7,10.6-7,14.8c-5.6,5.4-16,5.4-20.1-0.2C559.6,257.4,559.6,256.4,559.6,255.5z"/>
	</g>
	<g>
		<path class="st11" d="M792,302.4c-0.2-0.4-0.5-0.9-0.7-1.3c-0.7-1.4-1.5-2.8-2.1-4.3c-0.9-2-1-4.1-0.3-6.4c0.4-1.5,0.8-3,0.6-4.4
			c-0.4-3-0.7-6.6,0-10.2c0.1-0.3,0.1-0.6-0.6-1c-0.3-0.2-0.5-0.4-0.8-0.5c-1.7-1.3-3.5-2.6-5.1-4.1c-4.1-3.9-6-8.3-5.5-13.2
			c0.1-1.4,0.2-3,0.2-4.9c0-1.2-0.5-2-1.6-2.5c-0.7-0.3-1.4-0.7-2.1-1.2c-1.8-1.1-2.4-2.8-1.6-4.5c0.7-1.6,2.3-2.4,4.4-2.3
			c3.9,0.3,7.6,4,7.8,7.7c0.1,1.3,0,2.7,0,3.9c0,0.8,0,1.6,0,2.4c0,0.3,0,0.6,0,0.8c0,0.9,0,1.8,0.2,2.5c1.3,4.2,4.3,7.1,9.3,8.9
			c0.5,0.2,1.3,0.2,2,0.1c2.9-0.5,6.1-0.7,9.6-0.4c3.1,0.2,6.3,0.5,9.3,0.8c2.3,0.2,4.7,0.5,7,0.7c4,0.3,7.3,0.2,10.4-0.3
			c4.5-0.8,7.3-2.6,9.1-5.6c0.7-1.3,1.8-2.3,2.8-3.4l0.1-0.1c0.7-0.8,1.7-1.1,2.6-1c0.9,0.1,1.7,0.8,2.1,1.7c0.4,1,0.7,2,0.9,2.8
			c0,0.2,0,0.2,0.2,0.2c2.3,1.3,3.7,3,4,5c0.1,0.6,0.3,1,0.8,1.5c1,0.9,1.5,2,1.4,3c-0.1,1.1-0.7,2-1.7,2.8c-0.9,0.7-2,1.2-3.2,1.5
			c-3.3,0.8-5.8,2.7-7.9,6c-0.4,0.6-0.6,1.3-0.5,2.1c0.1,1,0.1,2.1,0.2,3.1c0.1,1.3,0.1,2.7,0.3,4c0.2,1.7,0.6,3.5,0.9,5.2
			c0.1,0.4,0.1,0.7,0.2,1.1c0.1,0.5,0.3,0.8,0.7,1.1c0.5,0.4,0.9,1,1.2,1.8c0.2,0.6,0.1,1.2-0.2,1.6c-0.2,0.3-0.7,0.7-1.6,0.6
			c-0.4,0-0.7,0-1.1,0c-0.5,0-1,0-1.5,0c-0.6,0-1.3-0.3-1.7-0.8c-2.4-3-4-6-5-9c-1.2,1.7-2,3.7-2.5,6.3c0.1,0.1,0.1,0.1,0.2,0.2
			c0.5,0.4,1.3,1.1,1,2.4l-0.2,0.9h-1c-0.2,0-0.5,0-0.7,0c-0.5,0-1,0-1.4,0c-3.1-0.1-3.7-0.5-4.4-3.3c0-0.1-0.1-0.2-0.1-0.4l0-0.1
			c-0.7-3.8-0.1-7.4,0.5-10.2c-0.3,0-0.6,0-0.9,0c-1.6,0-3.3,0-4.9-0.2c-2.2-0.2-4.5-0.6-6.7-0.9c-1.2-0.2-2.4-0.3-3.6-0.5
			c-0.9,1.5-1.9,3.1-2.8,4.6l-0.6,1c-0.3,0.6-0.4,1.2-0.2,1.9c0.1,0.4,0.2,0.8,0.3,1.2c0.3,1.5,0.6,2.8,1.7,3.8
			c0.6,0.5,0.7,1.4,0.4,2.1c-0.4,0.8-1.5,0.9-1.7,0.9c-0.7,0-1.3,0-2,0c-0.3,0-1.2-0.1-1.7-0.7l0,0c-2.3-2.8-4.7-5.7-5.4-9.5
			c-0.1-0.4-0.2-0.8-0.2-1.2c-0.4,0.3-0.8,0.6-1.1,1c-0.4,0.4-0.7,1.1-0.9,1.7c-0.1,0.3-0.1,0.8,0.2,1.7c0.2,0.5,0.2,1.1,0.3,1.6
			c0.2,1.1,0.3,1.9,1,2.6c0.5,0.5,0.7,1.2,0.5,1.8c-0.3,0.7-1,1.1-1.9,1.2c-0.3,0-0.5,0-0.8,0c-0.3,0-0.6,0-0.8,0
			c-0.1,0-0.2,0-0.3,0C793.4,303.8,792.5,303.3,792,302.4z M807.4,302.4C807.4,302.4,807.4,302.4,807.4,302.4
			C807.4,302.4,807.4,302.4,807.4,302.4z M842.1,301.6C842.1,301.6,842.1,301.6,842.1,301.6C842.1,301.6,842.1,301.6,842.1,301.6z"
			/>
	</g>
</g>
<g>
	<g>
		<line class="st12" x1="306.5" y1="105.4" x2="608.8" y2="105.4"/>
		<g>
			<rect x="306.4" y="104.6" width="0.3" height="1.6"/>
		</g>
		<g>
			<rect x="608.6" y="104.6" width="0.3" height="1.6"/>
		</g>
	</g>
</g>
<g>
	<rect x="363.3" y="85.2" class="st13" width="127.8" height="40.4"/>
	<text transform="matrix(1 0 0 1 383.458 115.1475)" class="st7 st3 st8">2 a 2,5 m</text>
</g>
<text transform="matrix(1 0 0 1 373.1958 203.4541)" class="st13 st3 st8">90 a 250 kg</text>
<path class="st14" d="M207.6,135.9c-0.3,3.4-1,6.7-0.9,10.1c0.3,6.1-1,11.9-2.8,17.7c-2.1,6.8-4.2,13.7-5.1,20.7
	c-0.6,5.1,0.8,10.4,1.2,15.6c0.1,1-0.5,2.1-1.5,3c0.4,2,0.8,4,1.1,6c-0.4,0.1-0.8,0.2-1.2,0.4c-3.5-4-7.4-7.9-7.3-13.8
	c0.1-5,1.1-10.1,1.3-15.1c0.3-6.9-0.1-13.8,0.2-20.8c0.2-5.1,1-10.3,1.5-15.4c0.4-4.3,0.5-8.7,0.9-13c0.4-6.2,1-12.4,1.4-18.6
	c0.3-4.8,3-7.6,7.1-9.3c4.9-2.1,10-4,14.9-6.1c4.4-1.8,5.3-6.6,2.4-10.3c-1.8-2.3-2.9-5.2-4.2-7.8c-0.2-0.4-0.3-1.3,0-1.5
	c2.2-2,1.2-4.6,1.3-7c0.2-7.3,5.1-12.3,12.4-12.5c7.5-0.2,12.5,4.2,13.3,11.5c0.3,2.7,0,5.3,1.1,8.2c0.8,2.1-2.1,5.6-3.3,8.5
	c-0.8,1.9-1.9,3.8-2.3,5.8c-0.4,2.1,0.8,3.7,3,4.5c4.3,1.7,8.7,3.4,12.9,5.2c1.7,0.7,3.4,1.5,5,2.4c2.9,1.6,4.7,4,5,7.4
	c0.4,5.3,0.9,10.5,1.4,15.8c0.8,9.2,1.8,18.3,2.4,27.5c0.3,3.7-0.3,7.5-0.1,11.2c0.3,6.3,0.4,12.6,1.3,18.8
	c1.4,8.9,0.5,16.9-6.1,23.6c-0.3,0.3-0.7,0.4-2,1c0.4-2.7,0.7-4.6,1-6.6c-0.2,0.1-0.3,0.1-0.5,0.2c-0.3-1.1-1.1-2.3-0.9-3.2
	c2.2-12.2,1.7-24-3.4-35.5c-2.7-6-3.8-12.4-3.2-19.1c0.3-3.1-0.6-6.3-1.6-9.6c-0.2,0.7-0.4,1.4-0.6,2.1c-2.2,8.8-1,17.6,1.4,26.1
	c3.9,13.8,2.8,27.5,1.2,41.3c-0.8,6.7-3.3,13.2-4.2,20c-0.9,6.6-1.7,13.5-0.9,20c1.3,10.2-0.6,19.8-3.5,29.3
	c-0.7,2.2-1.2,4.4-2.2,6.5c-2.1,4.2-2,8.4-0.6,12.6c0.5,1.6,2.3,2.7,3.4,4.1c0.6,0.8,1,1.8,1.5,2.7c-0.9,0.4-1.7,1.2-2.6,1.2
	c-3.3,0.1-6.7,0.3-9.9-0.1c-1-0.1-2.7-1.5-2.8-2.5c-0.3-3-0.5-6.1,0.2-8.9c2-8.3,2.1-16.5,0.6-24.9c-0.7-3.8,0.3-7.8,0.3-11.7
	c-0.1-6.9-0.4-13.8-0.7-20.7c-0.7-14.9-1.4-29.8-2.2-44.7c0-0.9-0.2-1.7-0.3-2.6c-0.3,0-0.7-0.1-1-0.1c-0.2,0.9-0.5,1.8-0.6,2.7
	c-0.9,16.2-1.9,32.5-2.5,48.7c-0.3,6.9,0.2,13.8,0.2,20.7c0,2.9,0.2,5.8-0.4,8.6c-1.6,7.8-1.2,15.4,0.5,23.1c0.7,3,0.6,6.2,0.7,9.2
	c0,1.8-0.9,3.2-3,3.2c-3.4,0-6.8,0.1-10.3-0.1c-0.8,0-1.9-0.8-2.3-1.5c-0.2-0.4,0.6-1.7,1.3-2.2c4.1-3.3,5.9-8.9,4.1-13.9
	c-3.2-9.2-6.5-18.4-7.2-28.2c-0.1-1.4-0.4-3-0.1-4.3c1.7-7.6,1.2-15.3,0.1-22.8c-0.8-5.4-2.8-10.6-3.6-16c-2.4-16.4-4-32.8,0.3-49.3
	c3.3-12.5,2.9-18.4,0.7-27.6C208.1,135.9,207.9,135.9,207.6,135.9z"/>
</svg>
